<?xml version="1.0" standalone="no"?>
<!DOCTYPE svg PUBLIC "-//W3C//DTD SVG 20010904//EN"
 "http://www.w3.org/TR/2001/REC-SVG-20010904/DTD/svg10.dtd">
<svg version="1.0" xmlns="http://www.w3.org/2000/svg"
 width="198.000000pt" height="198.000000pt" viewBox="0 0 198.000000 198.000000"
 preserveAspectRatio="xMidYMid meet">
<metadata>
Created by potrace 1.14, written by Peter Selinger 2001-2017
</metadata>
<g transform="translate(0.000000,198.000000) scale(0.100000,-0.100000)"
fill="#000000" stroke="none">
<path d="M59 1718 c-1 -32 -1 -188 0 -213 1 -16 8 -20 39 -21 45 -1 165 -15
173 -20 4 -2 24 -6 45 -10 86 -13 268 -86 368 -147 371 -225 599 -615 615
-1053 1 -20 6 -21 124 -20 l122 1 -2 25 c-5 80 -16 186 -19 191 -2 3 -6 21 -9
40 -3 19 -15 67 -26 108 l-21 74 38 33 c105 90 234 141 373 148 l44 3 0 146
c-1 81 -2 154 -2 163 -1 15 -11 16 -73 11 -146 -13 -303 -69 -430 -154 -87
-58 -85 -58 -119 0 -5 9 -39 56 -75 104 l-66 87 24 18 c55 43 209 129 279 157
140 56 303 92 432 95 15 1 27 4 28 8 1 10 1 213 0 234 -1 14 -11 15 -73 10
-270 -24 -559 -135 -785 -302 l-74 -55 -37 29 c-230 179 -545 306 -814 327
-77 6 -78 6 -79 -17z"/>
<path d="M59 1174 c0 -5 -1 -78 -1 -163 l-1 -154 59 -2 c74 -4 181 -37 260
-80 169 -94 289 -291 295 -487 l2 -55 158 0 c106 0 159 4 160 11 5 52 -8 147
-33 236 -88 321 -335 570 -663 665 -90 26 -234 44 -236 29z"/>
<path d="M59 526 c0 -22 -1 -97 -1 -166 l-1 -125 159 0 c179 0 170 -5 146 80
-33 119 -136 216 -261 244 l-41 9 -1 -42z"/>
<path d="M1860 553 c-99 -25 -177 -92 -221 -188 -15 -33 -30 -76 -32 -96 l-5
-37 159 1 c108 0 159 4 160 11 4 53 3 319 -1 321 -3 1 -30 -4 -60 -12z"/>
</g>
</svg>
